<svg xmlns="http://www.w3.org/2000/svg" width="83.412" height="85.885" viewBox="0 0 83.412 85.885">
  <path id="Path_12" data-name="Path 12" d="M1466.428,1088.01H1397.98l6.1,10.583h45.326a9.825,9.825,0,0,1,8.509,14.738l-11.76,20.368-11.762,20.375a9.823,9.823,0,0,1-17.018,0l-11.762-20.375-7.153-12.389h17.117l4.53,6.651,5.777,8.5,6.634-11.478,6.622-11.484h-45.12l-3.057-5.287-5.552-9.619h0a16.992,16.992,0,0,1,14.714-25.489h52.982c7.564,0,12.681,6.975,13.415,14.738Z" transform="translate(-1383.111 -1073.104)" fill="#2282fd"/>
</svg>
