<svg xmlns="http://www.w3.org/2000/svg" width="19.303" height="16.109" viewBox="0 0 19.303 16.109">
  <g id="security" transform="matrix(0.996, 0.087, -0.087, 0.996, 3.202, -0.297)">
    <g id="Group_2853" data-name="Group 2853" transform="translate(-1.5 0.84)">
      <g id="Group_2854" data-name="Group 2854" transform="translate(0.511 0.41)">
        <path id="Path_21870" data-name="Path 21870" d="M145.176,19.957v1c-.03-.014-.059-.028-.089-.04a1.818,1.818,0,0,0-.3-.094l-1.16-1.942h.467A1.078,1.078,0,0,1,145.176,19.957Z" transform="translate(-129.647 -17.075)" fill="none" stroke="#000" stroke-miterlimit="10" stroke-width="0.821"/>
        <path id="Path_21871" data-name="Path 21871" d="M120.57,4.156a1.8,1.8,0,0,0-.4-.045h-1.52l-1.134-1.9L116.787,1l.828-.5a.664.664,0,0,1,.909.229l.886,1.482Z" transform="translate(-105.426 -0.41)" fill="none" stroke="#000" stroke-miterlimit="10" stroke-width="0.821"/>
        <path id="Path_21872" data-name="Path 21872" d="M80.155,3.639l2.6-1.556a.663.663,0,0,1,.91.229l.067.112.726,1.215,1.134,1.9" transform="translate(-72.373 -1.835)" fill="none" stroke="#000" stroke-miterlimit="10" stroke-width="0.821"/>
        <path id="Path_21873" data-name="Path 21873" d="M134.729,66.261v1.983a.38.38,0,0,1-.38.38h-2.969a1.372,1.372,0,0,1,0-2.744h2.969A.38.38,0,0,1,134.729,66.261Z" transform="translate(-117.355 -59.484)" fill="none" stroke="#000" stroke-miterlimit="10" stroke-width="0.821"/>
        <path id="Path_21874" data-name="Path 21874" d="M152.022,75.663a.461.461,0,1,1-.461-.461.461.461,0,0,1,.461.461" transform="translate(-137.266 -67.894)"/>
        <path id="Path_21875" data-name="Path 21875" d="M102.569,38.29h4.769a1.83,1.83,0,0,1,.7.139c.03.012.059.026.089.04a1.823,1.823,0,0,1,1.034,1.644v.873" transform="translate(-92.597 -34.589)" fill="none" stroke="#000" stroke-miterlimit="10" stroke-width="0.821"/>
        <path id="Path_21876" data-name="Path 21876" d="M83.879,93.965v1.709a1.974,1.974,0,0,1-1.974,1.974H74.55" transform="translate(-67.316 -84.824)" fill="none" stroke="#000" stroke-miterlimit="10" stroke-width="0.821"/>
        <path id="Path_21879" data-name="Path 21879" d="M152.577,75.94a.738.738,0,1,1-.738-.738.738.738,0,0,1,.738.738" transform="translate(-149.549 -69.157)"/>
        <path id="Path_21880" data-name="Path 21880" d="M152.577,75.94a.738.738,0,1,1-.738-.738.738.738,0,0,1,.738.738" transform="translate(-147.026 -69.157)"/>
        <path id="Path_21881" data-name="Path 21881" d="M152.577,75.94a.738.738,0,1,1-.738-.738.738.738,0,0,1,.738.738" transform="translate(-144.699 -69.157)"/>
        <path id="Path_21878" data-name="Path 21878" d="M10.828,7.531v5a6.665,6.665,0,0,1-5.152,6.5,6.655,6.655,0,0,1-5.166-6.5v-5H.576A6.665,6.665,0,0,0,5.665,5.174a6.665,6.665,0,0,0,5.091,2.357Z" transform="translate(-0.857 -5.174)" fill="none" stroke="#000" stroke-miterlimit="10" stroke-width="1.022"/>
      </g>
    </g>
  </g>
</svg>
